PathFileType	4	(X/Y/Z)	/Users/itak/Documents/Research/Walk-IL/dataset/trc/00477_00167.trc
DataRate	CameraRate	NumFrames	NumMarkers	Units	OrigDataRate	OrigDataStartFrame	OrigNumFrames
100.000000	100.000000	4	53	mm	100.000000	530	606
Frame#	Time	RPSI			LPSI			L3			STRN			T10			C7			CLAV			RBAK			LBAK			LSHO			LUPA			LAEL			LAOL			LWTS			LWPS			LFRA			LIFD			LHPS			LHTS			RSHO			RUPA			RAEL			RAOL			RWTS			RWPS			RFRA			RIFD			RHTS			RHPS			RBHD			LFHD			RFHD			LBHD			LHIP			RHIP			RASI			LASI			LKNE			LTHI			LANK			LTIP			LTOE			LMT1			LMT5			LHEE			RKNE			RTHI			RANK			RTIP			RTOE			RMT1			RMT5			RHEE			
		X1	Y1	Z1	X2	Y2	Z2	X3	Y3	Z3	X4	Y4	Z4	X5	Y5	Z5	X6	Y6	Z6	X7	Y7	Z7	X8	Y8	Z8	X9	Y9	Z9	X10	Y10	Z10	X11	Y11	Z11	X12	Y12	Z12	X13	Y13	Z13	X14	Y14	Z14	X15	Y15	Z15	X16	Y16	Z16	X17	Y17	Z17	X18	Y18	Z18	X19	Y19	Z19	X20	Y20	Z20	X21	Y21	Z21	X22	Y22	Z22	X23	Y23	Z23	X24	Y24	Z24	X25	Y25	Z25	X26	Y26	Z26	X27	Y27	Z27	X28	Y28	Z28	X29	Y29	Z29	X30	Y30	Z30	X31	Y31	Z31	X32	Y32	Z32	X33	Y33	Z33	X34	Y34	Z34	X35	Y35	Z35	X36	Y36	Z36	X37	Y37	Z37	X38	Y38	Z38	X39	Y39	Z39	X40	Y40	Z40	X41	Y41	Z41	X42	Y42	Z42	X43	Y43	Z43	X44	Y44	Z44	X45	Y45	Z45	X46	Y46	Z46	X47	Y47	Z47	X48	Y48	Z48	X49	Y49	Z49	X50	Y50	Z50	X51	Y51	Z51	X52	Y52	Z52	X53	Y53	Z53	

531	5.3	-675.8877563476562	943.174072265625	-399.5540161132812	-690.0057983398438	949.3553466796875	-258.9481201171875	-685.7040405273438	1038.262573242188	-339.1766052246094	-938.010009765625	1257.336181640625	-321.9750671386719	-657.8812866210938	1160.366455078125	-329.3306579589844	-701.3851928710938	1433.58544921875	-329.6083068847656	-891.2932739257812	1365.92724609375	-312.1246643066406	-651.0330810546875	1313.744995117188	-428.6235046386719	-669.2030029296875	1378.284301757812	-232.4881896972656	-765.767333984375	1406.822265625	-150.8810882568359	-768.5540771484375	1292.897094726562	-48.66682052612305	-836.1416625976562	1095.629760742188	11.06519603729248	-769.4752197265625	1053.08203125	-57.07499694824219	-982.3521118164062	933.64501953125	-8.975493431091309	-938.2415161132812	904.371337890625	43.45854568481445	-883.4918823242188	1020.582885742188	29.76174926757812	-1050.401977539062	793.326171875	21.52339172363281	-974.9183349609375	838.0050659179688	53.76855850219727	-1028.72265625	864.8914794921875	13.25568199157715	-774.1829833984375	1418.52587890625	-486.1294860839844	-760.7909545898438	1362.069702148438	-564.722412109375	-777.8582153320312	1081.402221679688	-642.7529296875	-729.666748046875	1056.248168945312	-601.6727294921875	-903.3547973632812	885.9673461914062	-613.0575561523438	-839.0664672851562	868.5924682617188	-671.357421875	-787.2913818359375	1024.542358398438	-656.5653076171875	-926.7916259765625	736.7579345703125	-635.0552368164062	-927.7369384765625	791.2774047851562	-629.6845703125	-862.9647216796875	783.8564453125	-673.1451416015625	-848.6254272460938	1617.090576171875	-421.6738586425781	-837.5289306640625	1679.0234375	-224.8385314941406	-925.734375	1671.61865234375	-321.3150329589844	-716.2493286132812	1627.9541015625	-302.9975280761719	-839.5101318359375	864.7353515625	-149.3697052001953	-784.49658203125	854.145263671875	-547.7525024414062	-894.41552734375	903.4762573242188	-496.023193359375	-930.1729125976562	902.1103515625	-240.1939392089844	-824.2719116210938	449.6271057128906	-185.307373046875	-859.49267578125	601.5150146484375	-170.7504577636719	-751.2689819335938	41.62554550170898	-190.0045928955078	-813.8666381835938	302.6583862304688	-170.3298950195312	-986.5842895507812	43.57358551025391	-260.5280456542969	-907.8743286132812	52.47104263305664	-287.5993957519531	-905.6082763671875	43.77814483642578	-173.7857666015625	-706.0941772460938	48.94382095336914	-254.1670379638672	-844.9554443359375	473.6918640136719	-573.6048583984375	-834.219970703125	732.1768188476562	-574.4151000976562	-797.6990356445312	44.4107780456543	-632.8047485351562	-848.6705932617188	334.9095153808594	-603.8721313476562	-1006.053039550781	46.79773712158203	-559.5169677734375	-937.97412109375	49.68202972412109	-534.5372314453125	-934.1177978515625	49.10197448730469	-642.688232421875	-728.5440673828125	36.80088424682617	-593.7599487304688	
532	5.31	-678.052001953125	943.1677856445312	-400.3081359863281	-692.9683837890625	949.4013061523438	-259.7939453125	-688.1288452148438	1038.018432617188	-340.72802734375	-939.9374389648438	1257.5361328125	-325.2214050292969	-659.953857421875	1160.23046875	-331.5787658691406	-703.0127563476562	1433.594848632812	-332.5707397460938	-893.0734252929688	1366.049560546875	-315.2073669433594	-652.6575927734375	1313.493286132812	-431.3900756835938	-670.9902954101562	1378.263916015625	-235.4788513183594	-767.497314453125	1406.61279296875	-153.6977386474609	-769.4833984375	1291.960083007812	-52.04450607299805	-834.9171752929688	1093.592651367188	6.556103706359863	-768.6854858398438	1052.295532226562	-62.69720840454102	-978.3901977539062	929.0637817382812	-12.93137073516846	-933.1563720703125	900.2713012695312	38.81826782226562	-880.7173461914062	1017.58935546875	25.25351333618164	-1043.60693359375	787.3956909179688	17.26880645751953	-968.5038452148438	833.1516723632812	48.97710037231445	-1023.252197265625	859.3714599609375	9.264570236206055	-775.6539306640625	1418.44970703125	-489.1743469238281	-762.3853759765625	1361.796997070312	-567.7300415039062	-781.141845703125	1081.051513671875	-645.4992065429688	-732.9877319335938	1055.554931640625	-604.7479858398438	-908.5764770507812	887.096923828125	-614.1399536132812	-845.0198974609375	868.7930297851562	-673.0282592773438	-791.2605590820312	1024.242553710938	-659.0843505859375	-933.0751953125	737.4443359375	-634.7864990234375	-934.1514892578125	792.68603515625	-630.0689697265625	-869.85400390625	784.2734985351562	-674.1072998046875	-850.0028686523438	1617.480834960938	-424.5062561035156	-837.6345825195312	1679.4130859375	-227.7108764648438	-926.3448486328125	1672.432495117188	-323.8095092773438	-716.9849853515625	1627.680786132812	-306.4537963867188	-843.0603637695312	864.7334594726562	-151.1560821533203	-785.168212890625	854.3056030273438	-549.2366943359375	-896.0191040039062	903.2612915039062	-498.6039123535156	-933.0725708007812	902.04248046875	-242.7699584960938	-826.0567016601562	449.6190490722656	-186.5497131347656	-861.910400390625	601.3272705078125	-172.2955780029297	-751.3820190429688	41.83369827270508	-190.0928649902344	-815.02392578125	302.7651977539062	-171.1721343994141	-986.6757202148438	43.49538803100586	-260.6704711914062	-907.912841796875	52.34489822387695	-287.7871398925781	-905.60302734375	43.91044998168945	-173.9535980224609	-706.2162475585938	49.03673553466797	-254.3114013671875	-844.1411743164062	473.5896301269531	-575.1701049804688	-834.0114135742188	732.2261352539062	-576.77197265625	-797.734619140625	43.92490005493164	-633.562744140625	-848.3204345703125	334.8348693847656	-605.0595703125	-1005.945007324219	46.90100479125977	-559.6586303710938	-937.8893432617188	49.95264053344727	-534.9901733398438	-934.29248046875	48.80724334716797	-643.2901611328125	-728.4869384765625	36.34991455078125	-594.472412109375	
533	5.32	-680.141845703125	943.35888671875	-401.137451171875	-695.7568969726562	949.4696044921875	-260.7166748046875	-690.4219360351562	1037.948852539062	-342.2843322753906	-941.788330078125	1257.776000976562	-328.4425659179688	-661.9241333007812	1160.26708984375	-333.7481079101562	-704.6578369140625	1433.738037109375	-335.4673767089844	-894.8203735351562	1366.22802734375	-318.316162109375	-654.2163696289062	1313.386596679688	-434.0699462890625	-672.825439453125	1378.43310546875	-238.3552093505859	-769.370849609375	1406.525634765625	-156.4701538085938	-770.6301879882812	1291.099609375	-55.45600509643555	-833.8949584960938	1091.653686523438	1.862783432006836	-768.0645141601562	1051.651245117188	-68.47341918945312	-974.1885986328125	924.2737426757812	-17.0446949005127	-927.7982177734375	896.1427001953125	34.04515075683594	-877.9696655273438	1014.641540527344	20.57275009155273	-1036.123413085938	781.1326904296875	12.80296039581299	-961.6060180664062	828.1878662109375	44.0323600769043	-1017.332153320312	853.5350341796875	5.087207794189453	-777.0750732421875	1418.447998046875	-492.199951171875	-763.8353271484375	1361.58740234375	-570.6964111328125	-784.1669921875	1080.795776367188	-648.2471313476562	-736.0891723632812	1054.91943359375	-607.7797241210938	-913.6631469726562	888.436767578125	-615.26171875	-850.8277587890625	869.173583984375	-674.7174682617188	-794.9850463867188	1024.032836914062	-661.6065063476562	-939.0975341796875	738.2186279296875	-634.4030151367188	-940.5018920898438	794.359130859375	-630.509033203125	-876.6846923828125	784.8909301757812	-675.1051025390625	-851.3582153320312	1617.926513671875	-427.3927612304688	-837.8110961914062	1679.877807617188	-230.6402740478516	-926.961181640625	1673.311279296875	-326.3984985351562	-717.7645874023438	1627.459838867188	-309.910888671875	-846.349365234375	864.7171630859375	-152.9311828613281	-785.9903564453125	854.755859375	-550.800048828125	-897.5108032226562	903.3406982421875	-501.0081787109375	-935.7848510742188	901.9892578125	-245.2078399658203	-827.7457275390625	449.6154479980469	-187.7766265869141	-864.1768798828125	601.1517333984375	-173.7635498046875	-751.499755859375	42.04245376586914	-190.1891937255859	-816.1114501953125	302.8746337890625	-171.9980010986328	-986.7747192382812	43.42865371704102	-260.7844543457031	-907.9561157226562	52.23128890991211	-287.9543762207031	-905.58984375	44.03728866577148	-174.1146392822266	-706.3621826171875	49.1220817565918	-254.4909362792969	-843.6040649414062	473.6560668945312	-576.7525634765625	-834.2355346679688	732.6116943359375	-579.2052612304688	-797.8236083984375	43.57958602905273	-634.2826538085938	-848.0392456054688	334.8905029296875	-606.2122802734375	-1005.8349609375	47.00870132446289	-559.755859375	-937.7791748046875	50.17470169067383	-535.4322509765625	-934.4712524414062	48.54508209228516	-643.8088989257812	-728.493408203125	36.05477523803711	-595.18115234375	
534	5.33	-682.15087890625	943.7619018554688	-402.0688781738281	-698.3610229492188	949.5706787109375	-261.7434692382812	-692.5821533203125	1038.0576171875	-343.8479919433594	-943.5579833984375	1258.062744140625	-331.6158447265625	-663.7769165039062	1160.474853515625	-335.8361206054688	-706.320068359375	1433.996215820312	-338.2886352539062	-896.530029296875	1366.46923828125	-321.4288024902344	-655.7218017578125	1313.415771484375	-436.6625671386719	-674.7018432617188	1378.774291992188	-241.1013793945312	-771.3817749023438	1406.568969726562	-159.1961517333984	-772.0176391601562	1290.353271484375	-58.87593078613281	-833.1111450195312	1089.854614257812	-2.994013071060181	-767.6165161132812	1051.206909179688	-74.36321258544922	-969.7607421875	919.329833984375	-21.31693077087402	-922.211181640625	892.0610961914062	29.16510772705078	-875.2894287109375	1011.799865722656	15.73737716674805	-1027.933959960938	774.6051635742188	8.132061004638672	-954.2435302734375	823.1942138671875	38.95186233520508	-1010.960998535156	847.4374389648438	0.714085578918457	-778.4506225585938	1418.528930664062	-495.1883544921875	-765.158203125	1361.467407226562	-573.6099853515625	-786.925048828125	1080.651611328125	-650.9754028320312	-738.9545288085938	1054.367553710938	-610.7394409179688	-918.5863037109375	889.9957275390625	-616.4379272460938	-856.4441528320312	869.7487182617188	-676.4182739257812	-798.4481811523438	1023.934326171875	-664.1134643554688	-944.8887939453125	739.1337890625	-634.01611328125	-946.7333984375	796.2904052734375	-631.0719604492188	-883.4019775390625	785.7345581054688	-676.164306640625	-852.6842651367188	1618.394165039062	-430.3259582519531	-838.0601806640625	1680.399780273438	-233.6223602294922	-927.5899047851562	1674.231811523438	-329.0848693847656	-718.5906372070312	1627.271728515625	-313.3553771972656	-849.3546142578125	864.6983642578125	-154.7002716064453	-786.9956665039062	855.446533203125	-552.440185546875	-898.8990478515625	903.6862182617188	-503.2266235351562	-938.3062744140625	901.9599609375	-247.4959411621094	-829.3365478515625	449.6171264648438	-188.9898986816406	-866.2870483398438	600.9899291992188	-175.1606903076172	-751.6183471679688	42.25045776367188	-190.2951507568359	-817.1295166015625	302.9864501953125	-172.8114166259766	-986.8790283203125	43.36929321289062	-260.8782653808594	-908.0004272460938	52.12924575805664	-288.1031188964844	-905.569091796875	44.15559768676758	-174.2692108154297	-706.5352783203125	49.19256210327148	-254.7078704833984	-843.2256469726562	473.8288269042969	-578.28515625	-834.90283203125	733.257080078125	-581.6615600585938	-797.93505859375	43.35797882080078	-634.8794555664062	-847.7298583984375	335.02734375	-607.2713623046875	-1005.743713378906	47.11266326904297	-559.814208984375	-937.6697387695312	50.34402847290039	-535.82470703125	-934.626708984375	48.33079147338867	-644.2210083007812	-728.5396118164062	35.88071441650391	-595.7833862304688	
